# xmcd
#
# Track frame offsets: 
#        150
#        10717
#        21775
#        32622
#        42070
#        47525
#        76387
#        88450
#        101447
#        112597
#        124560
#        136127
#        148345
#        159735
#        170487
#        181262
#        192685
#        202392
#        213725
#        226112
#        234882
#        244860
#        254427
#        267865
#        277325
#        289687
#        300997
#        312110
#        321982
#        333272
#
# Disc length: 4588 seconds
#
# Revision: 2
# Processed by: cddbd v1.5.2PL0 Copyright (c) Steve Scherf et al.
# Submitted via: ExactAudioCopy v1.3
#
DISCID=a911ea1e
DTITLE=Speedy West and Jimmy Bryant - Flaming Guitars_CD3
DYEAR=1997
DGENRE=Instrumental
TTITLE0=On The Alamo
TTITLE1=Rolling Sky
TTITLE2=The Night Rider
TTITLE3=Hillcrest (Opus 3)
TTITLE4=China Boy
TTITLE5=China Boy
TTITLE6=Hawaiian War Chant
TTITLE7=Song Of The Islands
TTITLE8=On The Beach Of Waikiki
TTITLE9=My Tane
TTITLE10=Drifting And Dreaming (Sweet Paradise)
TTITLE11=My Little Grass Shack In Kealakekua, Hawaii
TTITLE12=Sweet Hawaiian Chimes
TTITLE13=Blue Hawaii
TTITLE14=Yaaka Hula Hickey Dula
TTITLE15=The Moon Of Manakoora
TTITLE16=Ka-Lu-A
TTITLE17=Luna
TTITLE18=Reflections From The Moon
TTITLE19=Space Man In Orbit
TTITLE20=Lazy Summer Evening
TTITLE21=Double Or Nothing
TTITLE22=Afternoon Of A Swan
TTITLE23=Wild And Woolly West
TTITLE24=Rippling Waters
TTITLE25=Totem Pole Dance
TTITLE26=Slow And Easy
TTITLE27=Speedy´s Special
TTITLE28=Sunset At Waikiki
TTITLE29=Tulsa Twist
EXTD=
EXTT0=
EXTT1=
EXTT2=
EXTT3=
EXTT4=
EXTT5=
EXTT6=
EXTT7=
EXTT8=
EXTT9=
EXTT10=
EXTT11=
EXTT12=
EXTT13=
EXTT14=
EXTT15=
EXTT16=
EXTT17=
EXTT18=
EXTT19=
EXTT20=
EXTT21=
EXTT22=
EXTT23=
EXTT24=
EXTT25=
EXTT26=
EXTT27=
EXTT28=
EXTT29=
PLAYORDER=
